<mxfile host="app.diagrams.net" modified="2023-05-22T09:10:23.760Z" agent="Mozilla/5.0 (Windows NT 10.0; Win64; x64) AppleWebKit/537.36 (KHTML, like Gecko) Chrome/113.0.0.0 Safari/537.36 Edg/113.0.1774.42" version="21.1.7" etag="OBSiK9IbNX9KaToXyBbx" type="github">
  <diagram name="第 1 页" id="c0mF0cB7yFn5_c9YYnA_">
    <mxGraphModel>
      <root>
        <mxCell id="0" />
        <mxCell id="1" parent="0" />
      </root>
    </mxGraphModel>
  </diagram>
</mxfile>
